<?xml version="1.0" standalone="no"?>
<!DOCTYPE svg PUBLIC "-//W3C//DTD SVG 20010904//EN"
 "http://www.w3.org/TR/2001/REC-SVG-20010904/DTD/svg10.dtd">
<svg version="1.0" xmlns="http://www.w3.org/2000/svg"
 width="700.000000pt" height="700.000000pt" viewBox="0 0 700.000000 700.000000"
 preserveAspectRatio="xMidYMid meet">
<metadata>
Created by potrace 1.14, written by Peter Selinger 2001-2017
</metadata>
<g transform="translate(0.000000,700.000000) scale(0.100000,-0.100000)"
fill="#000000" stroke="none">
<path d="M3180 6909 c-1648 -162 -2943 -1465 -3090 -3109 -13 -148 -13 -452 0
-600 62 -695 343 -1371 787 -1899 86 -102 299 -316 398 -401 550 -468 1225
-750 1943 -811 178 -15 561 -6 722 16 582 80 1119 296 1583 635 720 527 1216
1337 1355 2215 43 266 54 588 31 848 -93 1047 -664 1993 -1550 2570 -424 276
-894 449 -1419 522 -137 20 -617 28 -760 14z m-1875 -1558 c22 -10 510 -290
1085 -621 575 -332 1060 -606 1078 -610 17 -4 47 -4 66 0 18 4 511 283 1095
619 584 337 1075 617 1092 623 43 15 106 4 136 -24 56 -51 53 17 53 -1384 l0
-1297 -21 -34 c-15 -23 -56 -54 -137 -102 -179 -105 -2142 -1236 -2181 -1255
-79 -41 -26 -69 -1279 654 -1076 620 -1156 668 -1178 706 l-24 41 2 1305 c3
1237 4 1305 21 1331 42 64 117 83 192 48z"/>
<path d="M1240 4005 c0 -669 4 -1215 8 -1213 50 20 2101 1213 2095 1218 -6 5
-2007 1158 -2095 1207 -5 2 -8 -543 -8 -1212z"/>
<path d="M4715 4619 c-572 -330 -1046 -604 -1053 -608 -8 -4 388 -238 1041
-614 579 -334 1056 -607 1060 -607 4 0 7 547 7 1215 0 668 -3 1215 -7 1215 -5
-1 -476 -271 -1048 -601z"/>
<path d="M2362 3263 c-858 -494 -1049 -609 -1035 -617 10 -5 485 -279 1056
-608 571 -329 1040 -598 1042 -598 3 0 5 547 5 1215 0 668 -3 1215 -7 1215 -5
0 -482 -273 -1061 -607z"/>
<path d="M3580 2655 c0 -669 3 -1214 8 -1212 4 3 477 276 1052 607 575 331
1046 603 1048 605 2 2 -2078 1205 -2100 1213 -4 2 -8 -544 -8 -1213z"/>
</g>
</svg>
