<?xml version="1.0" encoding="UTF-8" standalone="no"?>
<svg width="84px" height="84px" viewBox="0 0 84 84" version="1.1" xmlns="http://www.w3.org/2000/svg" xmlns:xlink="http://www.w3.org/1999/xlink">
    <!-- Generator: Sketch 48.2 (47327) - http://www.bohemiancoding.com/sketch -->
    <title>Icon circle filled fox orange</title>
    <desc>Created with Sketch.</desc>
    <defs>
        <path d="M43,1.93258427 C20.3192268,1.93258427 1.93258427,20.3192268 1.93258427,43 C1.93258427,65.6807732 20.3192268,84.0674157 43,84.0674157 C65.6807732,84.0674157 84.0674157,65.6807732 84.0674157,43 C84.0674157,20.3192268 65.6807732,1.93258427 43,1.93258427" id="path-1"></path>
        <path d="M30.3471633,47.5122785 L30.3471633,18.1496203 L55.8213973,32.8312658 L30.3471633,47.5122785 Z M56.6856077,1.97556962 L56.6856077,31.336962 L31.2804852,16.6958228 L31.2113737,16.6559494 L56.6856077,1.97556962 Z M28.6193766,47.5116456 L3.14514251,32.8312658 L28.6193766,18.1496203 L28.6193766,47.5116456 Z M2.28093211,1.97556962 L27.7551662,16.6559494 L27.6860547,16.6958228 L2.28093211,31.336962 L2.28093211,1.97556962 Z M55.4479418,0.696455696 L30.3617465,15.1540506 C29.8786002,15.4318987 29.0879396,15.4318987 28.6047934,15.1540506 L3.51859806,0.696455696 C1.887821,-0.243417722 0.553779427,0.52556962 0.553779427,2.40531646 L0.553779427,32.3167089 C0.553779427,32.8736709 0.948792688,33.5572152 1.43193892,33.8356962 L28.6054275,49.4958228 C29.0885737,49.7743038 29.8792343,49.7743038 30.3623805,49.4958228 L57.5346009,33.8356962 C58.0177472,33.5572152 58.4133945,32.8736709 58.4133945,32.3167089 L58.4133945,2.40531646 C58.4133945,0.52556962 57.0787189,-0.243417722 55.4479418,0.696455696 Z" id="path-3"></path>
    </defs>
    <g id="Desktop" stroke="none" stroke-width="1" fill="none" fill-rule="evenodd" transform="translate(-642.000000, -6116.000000)">
        <g id="LOGO" transform="translate(-3.000000, 5443.000000)">
            <g id="Logo" transform="translate(132.000000, 490.000000)">
                <g id="Icon-circle-filled" transform="translate(512.000000, 0.000000)">
                    <g id="Icon" transform="translate(0.000000, 182.000000)">
                        <g id="Icon/Circle-filled">
                            <mask id="mask-2" fill="white">
                                <use xlink:href="#path-1"></use>
                            </mask>
                            <use id="Path" fill="#D8D8D8" fill-rule="evenodd" xlink:href="#path-1"></use>
                            <g id="color/fox-orange" mask="url(#mask-2)" fill="#F74B00" fill-rule="evenodd">
                                <g transform="translate(-6.764045, -1.932584)" id="Rectangle-Copy">
                                    <rect x="0" y="0" width="102" height="91"></rect>
                                </g>
                            </g>
                        </g>
                        <g id="Icon-Fox" transform="translate(13.528090, 20.292135)">
                            <mask id="mask-4" fill="white">
                                <use xlink:href="#path-3"></use>
                            </mask>
                            <use id="Signet" fill="#FEFEFE" fill-rule="evenodd" xlink:href="#path-3"></use>
                            <g id="color/white" mask="url(#mask-4)" fill="#FFFFFF" fill-rule="evenodd">
                                <g transform="translate(-11.600000, -17.307692)" id="Rectangle-Copy">
                                    <rect x="0" y="0" width="82" height="82"></rect>
                                </g>
                            </g>
                        </g>
                    </g>
                </g>
            </g>
        </g>
    </g>
</svg>